<?xml version="1.0" encoding="UTF-8"?>
<svg id="Layer_1" data-name="Layer 1" xmlns="http://www.w3.org/2000/svg" xmlns:xlink="http://www.w3.org/1999/xlink" viewBox="0 0 720.57 249.18">
  <defs>
    <style>
      .cls-1 {
        fill: #f6e8e5;
      }

      .cls-2 {
        fill: none;
      }

      .cls-3 {
        fill: #d69c42;
      }

      .cls-4 {
        clip-path: url(#clippath);
      }

      .cls-5 {
        fill: #9f4900;
      }
    </style>
    <clipPath id="clippath">
      <path class="cls-2" d="M397.21,87.48v163.7h266.3V87.48h-266.3ZM437.47,136.14l-2.95-8.92c2.84-5.34,5.69-10.16,8.54-14.4l2.5,8.58c-2.7,4.38-5.4,9.3-8.09,14.74ZM633.11,180.8l-.86.41c-1.65.78-3.67,1.73-5.94,2.78l-.22.1c-1.66.77-3.47,1.62-5.34,2.5v-7.95c2.54-1.28,5.21-2.6,8-3.97,1.08-.54,2.8-1.31,4.71-2.15v4.01h9.88c-4.26,1.63-8.28,3.3-10.23,4.27Z"/>
    </clipPath>
  </defs>
  <g>
    <path class="cls-3" d="M658.12,163.64h-.17l-.13.04c-5.3,1.94-23.92,9.51-28.65,11.89-17.08,8.36-28.92,14.74-34.35,18.5-.96-1.52-1.94-2.94-2.92-4.3-2.73-3.92-5.09-7.28-5.09-10.8,0-2,.71-3.92,2.15-5.86,2.4-3.19,5.15-5.59,6.65-6.34.69-.42,1.13-.46,1.25-.56,0,0,.02.06.02.21,0,.77-.73,2.77-4.17,8.03-.33.5-.42.63-.44.75-.08.31-.08.6-.08.83,0,2.17,2.09,3.46,4.09,3.46,1.44,0,2.56-.52,3.27-1.48l.17-.42c2.15-5.46,2.59-9.01,2.59-11.01,0-.5,0-.94-.08-1.36-.5-3.84-3.59-4.73-8.7-2.52-4.25,2.13-7.47,4.63-9.55,7.44-1.77,2.42-2.65,4.84-2.65,7.38,0,.42.02.83.08,1.29-.94.06-1.73.1-2.44.1-7.3,0-10.99-2.29-10.99-6.8,0-2.34.96-4.71,1.54-6.11.15-.33.25-.6.29-.73l1.19-2.29.08-.48c0-1.77-2.61-2.42-4.34-2.42-1,0-1.65.13-2.06.44l-.17.13-.06.19c-.33.83-.73,1.84-.73,1.9l-.13.19c-2.38,4.73-14.47,27.8-18.06,33.18.44-2.67,2.02-9.2,6.44-24.34q.35-1.21.35-1.31l-.06-.27c-.94-2.15-3.4-3.9-5.48-3.9-1.13,0-2.63.42-3.42,2.52-.96,2.9-2.09,7.03-3.07,11.37-5.21,3.75-21.77,15.12-30.7,15.12-2.11,0-3.57-.67-4.44-2-.73-1.11-1.15-3-1.15-5.19,0-.27.02-.56.04-.81,0-.1,0-.21.02-.29,5.03-2.04,12.97-6.21,12.97-12.32,0-.19-.04-.35-.06-.54-.02-.1-.02-.21-.04-.4-.15-1.67-1.06-2.96-2.44-3.57-.54-.25-1.15-.38-1.88-.38-1.17,0-2.27.33-3.52,1.04-1.59.88-3.23,2.25-4.63,3.88-.81.96-1.5,1.94-2.09,2.9-1,.33-4.8,1.71-10.63,3.92l-.25.1c-.42.17-.88.33-1.36.54-4.07,1.63-8.34,3.4-12.74,5.3,5.53-13.45,9.84-27.74,12.49-41.44.65-3.25,2.73-14.81,2.73-26.65,0-19.56-5.8-29.9-16.75-29.9h-1.15c-22.21,1.31-40.06,36.43-52.26,66.17,1.36-5.48,2.98-10.97,4.48-16.02,1.92-6.46,3.57-12.03,4.3-16.2.1-.48.1-.85.1-1.19,0-.63-.08-1.11-.29-1.73-.5-1.06-2.04-1.79-3.73-1.79-1.48,0-2.69.48-3.38,1.33-.33.42-.98,1.31-1.54,2.82l-.52,1.27c-2.09,4.98-5.94,14.26-5.94,28.21v2.02c-1.65,8.88-3.46,18.16-5.23,26.8-.27.92-.54,1.75-.79,2.59l-.4,1.21c-2.25,6.99-4.25,13.85-5.63,19.27-.65,2.59-.98,4.82-.98,6.44,0,2.92,1.11,3.55,2.02,3.55.25,0,.52,0,.77-.1.52-.1,1.04-.52,1.54-1.25,1.46-2.27,6.26-11.89,9.15-25.82.1-.54.42-1.48.73-2.38.35-1.02.73-2.09.83-2.71,13.12-39.14,33.78-86.12,57.76-87.56h.46c9.51,0,10.95,18.1,10.95,28.88,0,9.68-1.08,18.56-1.75,21.88-2.96,15.29-7.82,30.8-14.08,44.9-53.18,23.21-72.13,41.94-72.13,51.76,0,4.61,4.02,7.36,10.76,7.36,14.47,0,44.11-13.55,62.02-49.86.69-1.33,1.48-3.11,2.25-4.84.35-.79.69-1.54.98-2.19,3.98-1.67,7.78-3.07,11.45-4.4,1.38-.5,2.71-.98,3.98-1.46l.19-.08c3.79-1.29,6.9-2.31,9.09-3.02-.27,1.21-.42,2.4-.42,3.59,0,2.71.73,5.17,2.17,7.28,1.73,2.67,4.63,4.05,8.59,4.05,8.38,0,20.02-6.09,28.76-11.53-.63,3.46-1.23,7.86-1.23,11.57,0,2.82.27,6.61,2.69,7.15.21.1.5.21.83.21,3.57,0,11.22-10.64,22.77-31.61,1.38,4.46,5.9,9.03,18.64,9.18,1.48,3.17,3.92,6.09,6.09,8.7,1.33,1.58,2.59,3.09,3.48,4.46-13.35,10.13-19.85,19.33-21.52,24.61-.4,1.33-.58,2.54-.58,3.69,0,4.09,1.86,6.94,4.96,7.65,1.29.27,2.31.42,3.25.42,11.26,0,20.31-14.28,20.31-26.11,0-3.19-.65-6.15-1.88-8.61,6.03-4.21,19.83-10.64,29.03-14.93,2.67-1.23,5.01-2.34,6.78-3.17,4.61-2.27,21.75-8.97,27.07-9.59l.25-.08c.96-.56,1.52-1.61,1.52-2.79,0-1.73-1.17-3.59-3.38-3.8ZM594.75,204.63c0,9.55-8.15,22.38-16.49,22.38-.79,0-1.4-.1-2.02-.31-.38-.1-1.5-.4-1.5-2.21,0-.67.15-1.48.38-2.17,1.21-3.73,6.53-12.55,18.93-22.25.48,1.29.71,2.79.71,4.57ZM511.9,175c.26,1.49-.46,3.11-7.36,7.36,2.14-4.6,5.17-7.69,6.76-7.95.49-.05.58.42.61.58ZM468.82,194.79c-.06.19-.13.4-.19.58-.25.75-.5,1.54-.71,1.98-15.97,32.22-42.71,46.73-56.6,46.73-2.69,0-7.19-.58-7.19-4.48,0-7.61,16.97-23.88,64.69-44.81Z"/>
    <path class="cls-1" d="M202.92,107.2h12.25l5.66,62.17h.23l6.01-62.17h13.87l6.01,62.17h.23l5.66-62.17h10.98l-8.2,80.89h-15.83l-5.78-54.54h-.23l-5.78,54.54h-16.87l-8.2-80.89Z"/>
    <path class="cls-1" d="M270.29,107.2h34.67v11.55h-21.95v21.38h17.45v11.56h-17.45v24.84h21.95v11.55h-34.67v-80.89Z"/>
    <path class="cls-1" d="M312.23,107.2h34.67v11.55h-21.95v21.38h17.45v11.56h-17.45v24.84h21.95v11.55h-34.67v-80.89Z"/>
    <path class="cls-1" d="M354.18,107.2h12.71v34.09l16.18-34.09h12.71l-15.14,29.7,15.37,51.19h-13.29l-10.75-36.05-5.08,10.28v25.77h-12.71v-80.89Z"/>
    <path class="cls-1" d="M402.01,107.2h12.71v69.33h20.91v11.55h-33.63v-80.89Z"/>
    <path class="cls-1" d="M443.26,153.65l-15.37-46.45h13.52l8.67,29.7h.23l8.67-29.7h12.36l-15.37,46.45v34.43h-12.71v-34.43Z"/>
    <g>
      <path class="cls-1" d="M527.49,107.2h19.18c6.55,0,11.32,1.52,14.33,4.56,3,3.04,4.51,7.72,4.51,14.04v3.24c0,4.16-.68,7.55-2.02,10.17-1.35,2.62-3.41,4.51-6.18,5.66v.23c6.32,2.16,9.48,7.78,9.48,16.87v6.93c0,6.24-1.64,11-4.91,14.27-3.28,3.28-8.07,4.91-14.39,4.91h-19.99v-80.89ZM545.17,140.13c2.54,0,4.45-.65,5.72-1.96,1.27-1.31,1.91-3.5,1.91-6.59v-4.51c0-2.93-.52-5.04-1.56-6.35-1.04-1.31-2.68-1.97-4.91-1.97h-6.12v21.38h4.97ZM547.48,176.53c2.23,0,3.89-.6,4.97-1.79,1.08-1.19,1.62-3.25,1.62-6.18v-7.05c0-3.7-.64-6.26-1.91-7.68-1.27-1.42-3.37-2.14-6.3-2.14h-5.66v24.84h7.28Z"/>
      <path class="cls-1" d="M574.17,107.2h18.83c6.55,0,11.32,1.52,14.33,4.56,3,3.04,4.51,7.72,4.51,14.04v4.97c0,8.4-2.77,13.71-8.32,15.95v.23c3.08.92,5.26,2.81,6.53,5.66,1.27,2.85,1.91,6.66,1.91,11.44v14.21c0,2.31.08,4.18.23,5.6.15,1.43.54,2.83,1.16,4.22h-12.94c-.46-1.31-.77-2.54-.92-3.7-.16-1.16-.23-3.24-.23-6.24v-14.79c0-3.7-.6-6.28-1.79-7.74-1.2-1.46-3.26-2.19-6.18-2.19h-4.39v34.66h-12.71v-80.89ZM591.5,141.87c2.54,0,4.45-.65,5.72-1.97,1.27-1.31,1.91-3.5,1.91-6.59v-6.24c0-2.93-.52-5.04-1.56-6.35-1.04-1.31-2.68-1.97-4.91-1.97h-5.78v23.11h4.62Z"/>
      <path class="cls-1" d="M620.74,107.2h34.67v11.55h-21.95v21.38h17.45v11.56h-17.45v24.84h21.95v11.55h-34.67v-80.89Z"/>
      <path class="cls-1" d="M659.68,107.2h12.25l5.66,62.17h.23l6.01-62.17h13.87l6.01,62.17h.23l5.66-62.17h10.98l-8.2,80.89h-15.83l-5.78-54.54h-.23l-5.78,54.54h-16.87l-8.2-80.89Z"/>
    </g>
    <path class="cls-3" d="M581.53,155.09c-.95-2.27-3.02-3.08-4.1-2.97-.32.03-.55.18-.6.38v.05c.07.65,1.99.63,2.22,2.8.05.5,0,1.14-.18,1.94-.27.99-.32,1.77-.26,2.27.12,1.15.85,1.32,1.73,1.23l.27-.03c.99-.17,1.69-1.53,1.48-3.49-.07-.7-.28-1.38-.55-2.18Z"/>
    <g class="cls-4">
      <path class="cls-3" d="M658.12,163.64h-.17l-.13.04c-5.3,1.94-23.92,9.51-28.65,11.89-17.08,8.36-28.92,14.74-34.35,18.5-.96-1.52-1.94-2.94-2.92-4.3-2.73-3.92-5.09-7.28-5.09-10.8,0-2,.71-3.92,2.15-5.86,2.4-3.19,5.15-5.59,6.65-6.34.69-.42,1.13-.46,1.25-.56,0,0,.02.06.02.21,0,.77-.73,2.77-4.17,8.03-.33.5-.42.63-.44.75-.08.31-.08.6-.08.83,0,2.17,2.09,3.46,4.09,3.46,1.44,0,2.56-.52,3.27-1.48l.17-.42c2.15-5.46,2.59-9.01,2.59-11.01,0-.5,0-.94-.08-1.36-.5-3.84-3.59-4.73-8.7-2.52-4.25,2.13-7.47,4.63-9.55,7.44-1.77,2.42-2.65,4.84-2.65,7.38,0,.42.02.83.08,1.29-.94.06-1.73.1-2.44.1-7.3,0-10.99-2.29-10.99-6.8,0-2.34.96-4.71,1.54-6.11.15-.33.25-.6.29-.73l1.19-2.29.08-.48c0-1.77-2.61-2.42-4.34-2.42-1,0-1.65.13-2.06.44l-.17.13-.06.19c-.33.83-.73,1.84-.73,1.9l-.13.19c-2.38,4.73-14.47,27.8-18.06,33.18.44-2.67,2.02-9.2,6.44-24.34q.35-1.21.35-1.31l-.06-.27c-.94-2.15-3.4-3.9-5.48-3.9-1.13,0-2.63.42-3.42,2.52-.96,2.9-2.09,7.03-3.07,11.37-5.21,3.75-21.77,15.12-30.7,15.12-2.11,0-3.57-.67-4.44-2-.73-1.11-1.15-3-1.15-5.19,0-.27.02-.56.04-.81,0-.1,0-.21.02-.29,5.03-2.04,12.97-6.21,12.97-12.32,0-.19-.04-.35-.06-.54-.02-.1-.02-.21-.04-.4-.15-1.67-1.06-2.96-2.44-3.57-.54-.25-1.15-.38-1.88-.38-1.17,0-2.27.33-3.52,1.04-1.59.88-3.23,2.25-4.63,3.88-.81.96-1.5,1.94-2.09,2.9-1,.33-4.8,1.71-10.63,3.92l-.25.1c-.42.17-.88.33-1.36.54-4.07,1.63-8.34,3.4-12.74,5.3,5.53-13.45,9.84-27.74,12.49-41.44.65-3.25,2.73-14.81,2.73-26.65,0-19.56-5.8-29.9-16.75-29.9h-1.15c-22.21,1.31-40.06,36.43-52.26,66.17,1.36-5.48,2.98-10.97,4.48-16.02,1.92-6.46,3.57-12.03,4.3-16.2.1-.48.1-.85.1-1.19,0-.63-.08-1.11-.29-1.73-.5-1.06-2.04-1.79-3.73-1.79-1.48,0-2.69.48-3.38,1.33-.33.42-.98,1.31-1.54,2.82l-.52,1.27c-2.09,4.98-5.94,14.26-5.94,28.21v2.02c-1.65,8.88-3.46,18.16-5.23,26.8-.27.92-.54,1.75-.79,2.59l-.4,1.21c-2.25,6.99-4.25,13.85-5.63,19.27-.65,2.59-.98,4.82-.98,6.44,0,2.92,1.11,3.55,2.02,3.55.25,0,.52,0,.77-.1.52-.1,1.04-.52,1.54-1.25,1.46-2.27,6.26-11.89,9.15-25.82.1-.54.42-1.48.73-2.38.35-1.02.73-2.09.83-2.71,13.12-39.14,33.78-86.12,57.76-87.56h.46c9.51,0,10.95,18.1,10.95,28.88,0,9.68-1.08,18.56-1.75,21.88-2.96,15.29-7.82,30.8-14.08,44.9-53.18,23.21-72.13,41.94-72.13,51.76,0,4.61,4.02,7.36,10.76,7.36,14.47,0,44.11-13.55,62.02-49.86.69-1.33,1.48-3.11,2.25-4.84.35-.79.69-1.54.98-2.19,3.98-1.67,7.78-3.07,11.45-4.4,1.38-.5,2.71-.98,3.98-1.46l.19-.08c3.79-1.29,6.9-2.31,9.09-3.02-.27,1.21-.42,2.4-.42,3.59,0,2.71.73,5.17,2.17,7.28,1.73,2.67,4.63,4.05,8.59,4.05,8.38,0,20.02-6.09,28.76-11.53-.63,3.46-1.23,7.86-1.23,11.57,0,2.82.27,6.61,2.69,7.15.21.1.5.21.83.21,3.57,0,11.22-10.64,22.77-31.61,1.38,4.46,5.9,9.03,18.64,9.18,1.48,3.17,3.92,6.09,6.09,8.7,1.33,1.58,2.59,3.09,3.48,4.46-13.35,10.13-19.85,19.33-21.52,24.61-.4,1.33-.58,2.54-.58,3.69,0,4.09,1.86,6.94,4.96,7.65,1.29.27,2.31.42,3.25.42,11.26,0,20.31-14.28,20.31-26.11,0-3.19-.65-6.15-1.88-8.61,6.03-4.21,19.83-10.64,29.03-14.93,2.67-1.23,5.01-2.34,6.78-3.17,4.61-2.27,21.75-8.97,27.07-9.59l.25-.08c.96-.56,1.52-1.61,1.52-2.79,0-1.73-1.17-3.59-3.38-3.8ZM594.75,204.63c0,9.55-8.15,22.38-16.49,22.38-.79,0-1.4-.1-2.02-.31-.38-.1-1.5-.4-1.5-2.21,0-.67.15-1.48.38-2.17,1.21-3.73,6.53-12.55,18.93-22.25.48,1.29.71,2.79.71,4.57ZM511.9,175c.26,1.49-.46,3.11-7.36,7.36,2.14-4.6,5.17-7.69,6.76-7.95.49-.05.58.42.61.58ZM468.82,194.79c-.06.19-.13.4-.19.58-.25.75-.5,1.54-.71,1.98-15.97,32.22-42.71,46.73-56.6,46.73-2.69,0-7.19-.58-7.19-4.48,0-7.61,16.97-23.88,64.69-44.81Z"/>
    </g>
  </g>
  <g>
    <g>
      <path class="cls-1" d="M0,152.58v-13.01c3.62,0,6.42-.89,8.41-2.68,1.99-1.79,2.98-4.31,2.98-7.57v-27.42c0-8.13,2.27-14.44,6.8-18.9,4.54-4.47,10.94-6.7,19.21-6.7v13c-3.93,0-6.97.96-9.12,2.88-2.15,1.92-3.22,4.65-3.22,8.18v29.03c0,7.37-2.18,13.08-6.54,17.13-4.36,4.04-10.54,6.07-18.53,6.07ZM37.41,215.86c-8.27,0-14.67-2.23-19.21-6.7-4.54-4.47-6.8-10.75-6.8-18.84v-27.48c0-3.26-1-5.79-2.98-7.57-1.99-1.79-4.79-2.68-8.41-2.68v-13.01c8,0,14.18,2.09,18.53,6.27,4.36,4.18,6.54,10.09,6.54,17.73v28.15c0,3.53,1.07,6.27,3.22,8.21,2.15,1.94,5.18,2.92,9.12,2.92v13Z"/>
      <path class="cls-1" d="M145.84,146.51c-4.36-4.04-6.54-9.75-6.54-17.13v-29.03c0-3.53-1.07-6.26-3.22-8.18-2.15-1.92-5.18-2.88-9.12-2.88v-13c8.27,0,14.67,2.23,19.21,6.7,4.54,4.47,6.8,10.77,6.8,18.9v27.42c0,3.26,1,5.79,2.98,7.57,1.99,1.79,4.79,2.68,8.41,2.68v13.01c-8,0-14.18-2.02-18.53-6.07ZM126.97,202.85c3.93,0,6.97-.97,9.12-2.92,2.15-1.94,3.22-4.68,3.22-8.21v-28.15c0-7.64,2.18-13.55,6.54-17.73,4.36-4.18,10.54-6.27,18.53-6.27v13.01c-3.62,0-6.42.89-8.41,2.68-1.99,1.79-2.98,4.31-2.98,7.57v27.48c0,8.09-2.27,14.37-6.8,18.84-4.54,4.47-10.94,6.7-19.21,6.7v-13Z"/>
    </g>
    <ellipse class="cls-5" cx="82.19" cy="104.28" rx="41.32" ry="9.7"/>
    <path class="cls-3" d="M102.77,3.79c3.02,3.4,3.16,9.34-.51,12.37-1.93,1.59-7.57,2.89-5.34,6.65,2.08,3.5,8.57,2.7,9.54,9.7,1.17,8.42-5.38,14.17-12.92,16.06-3.07.77-9.58.47-11.39,2.91-2.55,3.45,2.75,5.7,3.58,8.47.86,2.88-.4,5.33-2.08,7.63-2.56,3.5-4.79,7.22-6.52,11.2l-.57,1.31c-1-7.4,4.25-14.36.52-21.76-2.03-4.03-7.79-6.98-3.45-12.23,3.57-4.32,10.66-2.65,14.96-5.6,4.51-3.09,3.9-8.42-1.32-10.25-4.96-1.74-16.39,1.71-16.57-6.71-.2-9.12,12.87-10.08,18.98-13.24,2.98-1.55,5.84-3.65,4.45-7.44l-4.17-2.34c4.26-1.29,9.81-.09,12.81,3.28Z"/>
  </g>
</svg>